<svg xmlns="http://www.w3.org/2000/svg" viewBox="0 0 16 16">
  <!-- Molty (Lobster) Pixel Art - Roger -->
  <!-- Colors: #00FFF5 (cyan), #0D0D0D (dark bg) -->
  
  <!-- Body -->
  <rect x="4" y="4" width="8" height="6" fill="#00FFF5"/>
  <rect x="5" y="3" width="6" height="1" fill="#00FFF5"/>
  <rect x="6" y="2" width="4" height="1" fill="#00FFF5"/>
  
  <!-- Eyes -->
  <rect x="5" y="5" width="2" height="2" fill="#0D0D0D"/>
  <rect x="9" y="5" width="2" height="2" fill="#0D0D0D"/>
  <rect x="6" y="6" width="1" height="1" fill="#00FFF5"/>
  <rect x="10" y="6" width="1" height="1" fill="#00FFF5"/>
  
  <!-- Claws -->
  <rect x="2" y="4" width="2" height="2" fill="#00FFF5"/>
  <rect x="12" y="4" width="2" height="2" fill="#00FFF5"/>
  <rect x="1" y="5" width="1" height="2" fill="#00FFF5"/>
  <rect x="14" y="5" width="1" height="2" fill="#00FFF5"/>
  
  <!-- Legs -->
  <rect x="3" y="10" width="1" height="2" fill="#00FFF5"/>
  <rect x="5" y="10" width="1" height="2" fill="#00FFF5"/>
  <rect x="10" y="10" width="1" height="2" fill="#00FFF5"/>
  <rect x="12" y="10" width="1" height="2" fill="#00FFF5"/>
  
  <!-- Tail -->
  <rect x="6" y="10" width="4" height="1" fill="#00FFF5"/>
  <rect x="7" y="11" width="2" height="1" fill="#00FFF5"/>
</svg>
